<?xml version="1.0" encoding="UTF-8"?>
<svg version="1.1" xmlns="http://www.w3.org/2000/svg" width="1780" height="1248">
<path d="M0 0 C587.4 0 1174.8 0 1780 0 C1780 411.84 1780 823.68 1780 1248 C1192.6 1248 605.2 1248 0 1248 C0 836.16 0 424.32 0 0 Z " fill="transparent" transform="translate(0,0)"/>
<path d="M0 0 C1.84538364 -0.00390426 3.6907664 -0.00824235 5.53614807 -0.01298523 C9.38439863 -0.02039099 13.23255739 -0.02019938 17.08081055 -0.01489258 C20.97187904 -0.01027376 24.8626341 -0.0171388 28.75366211 -0.03540039 C49.86277059 -0.13357882 70.6205591 -0.18381759 91.50390625 3.30078125 C92.86134271 3.51271669 94.21884014 3.72426219 95.57641602 3.93530273 C98.75433455 4.45958934 101.90862638 5.04259566 105.06640625 5.67578125 C106.14519043 5.88855713 107.22397461 6.10133301 108.33544922 6.32055664 C116.96690178 8.07905503 125.2063112 10.34243098 133.50390625 13.30078125 C134.82403798 13.74532885 136.14435504 14.1893264 137.46484375 14.6328125 C155.5194539 20.86501586 172.81725347 30.14291453 182.50390625 47.30078125 C183.08527344 48.30109375 183.66664062 49.30140625 184.265625 50.33203125 C196.12108652 75.31416929 187.87862812 110.18597724 179.12841797 134.76245117 C167.19759122 167.09696488 149.57851587 196.60699883 129.06103516 224.20556641 C127.53729583 226.25585347 126.02569708 228.31463477 124.515625 230.375 C108.17593842 252.5468142 89.88011435 273.19906898 71.21899414 293.42602539 C69.94083501 294.82317613 68.67349198 296.23023664 67.41186523 297.64233398 C58.93600318 307.04771585 49.98521518 315.97102714 41.02368164 324.91137695 C38.30824611 327.62142521 35.59823261 330.33681374 32.88867188 333.05273438 C31.14224783 334.79849801 29.39551381 336.54395162 27.6484375 338.2890625 C26.84928421 339.09024002 26.05013092 339.89141754 25.22676086 340.71687317 C21.03660024 344.88976207 16.77602007 348.90862222 12.2742157 352.74455261 C10.43654538 354.35999628 8.71656989 356.05405181 7.00390625 357.80078125 C4.08259837 360.76793926 1.02398952 363.50137096 -2.12890625 366.21875 C-5.13331924 368.86124525 -8.06343447 371.57918298 -10.99609375 374.30078125 C-16.80859231 379.68510312 -22.71762072 384.92798396 -28.7421875 390.07421875 C-29.95187955 391.10800665 -31.16151335 392.14186272 -32.37109375 393.17578125 C-32.97985352 393.69567627 -33.58861328 394.21557129 -34.21582031 394.7512207 C-37.75290534 397.78009842 -41.24027383 400.85249868 -44.68359375 403.98828125 C-48.82440642 407.7459343 -53.11252968 411.27844063 -57.45703125 414.796875 C-62.93119185 419.30707673 -68.25035681 423.99736415 -73.59960938 428.65429688 C-76.57464564 431.23715534 -79.56553435 433.80135039 -82.55859375 436.36328125 C-83.13198486 436.85417236 -83.70537598 437.34506348 -84.29614258 437.85083008 C-85.45139893 438.83963328 -86.60675351 439.82832174 -87.76220703 440.81689453 C-90.67503421 443.30973649 -93.58543436 445.80540891 -96.49609375 448.30078125 C-97.66274893 449.30079465 -98.82941559 450.30079466 -99.99609375 451.30078125 C-100.57359375 451.79578125 -101.15109375 452.29078125 -101.74609375 452.80078125 C-106.99609376 457.30078126 -106.99609376 457.30078126 -108.74584961 458.80053711 C-109.91337603 459.80129731 -111.08085645 460.80211117 -112.24829102 461.80297852 C-115.15143004 464.29178801 -118.05534324 466.77968216 -120.9609375 469.265625 C-127.01160068 474.44424327 -133.04617669 479.64028785 -139.05859375 484.86328125 C-143.67747077 488.87508215 -148.31766497 492.85859207 -152.99609375 496.80078125 C-157.65153088 500.72449656 -162.2725019 504.68558192 -166.87109375 508.67578125 C-167.80646973 509.48740723 -167.80646973 509.48740723 -168.76074219 510.31542969 C-171.97498537 513.10661567 -175.18573906 515.90176897 -178.39453125 518.69921875 C-184.85574389 524.32507027 -191.3603831 529.86567042 -198.01953125 535.2578125 C-201.15795063 537.84676098 -204.17254976 540.55915283 -207.1953125 543.28125 C-209.68051999 545.46266302 -212.23334409 547.53908159 -214.80859375 549.61328125 C-218.84040677 552.88034313 -222.69906331 556.26893052 -226.49609375 559.80078125 C-231.03138406 564.01595904 -235.71165405 567.98499199 -240.53125 571.87109375 C-245.96426752 576.32344803 -251.23181905 580.96908222 -256.52587891 585.58496094 C-259.82225991 588.45571257 -263.12869017 591.3148509 -266.43359375 594.17578125 C-271.46706522 598.53639459 -276.49310482 602.90518395 -281.49609375 607.30078125 C-280.81524469 610.83693779 -279.37574392 613.5741608 -277.6171875 616.703125 C-277.029375 617.75226074 -276.4415625 618.80139648 -275.8359375 619.88232422 C-275.20816406 620.98979004 -274.58039063 622.09725586 -273.93359375 623.23828125 C-273.29679687 624.3689502 -272.66 625.49961914 -272.00390625 626.66455078 C-268.25548133 633.29013995 -264.44608447 639.85055989 -260.33984375 646.26171875 C-258.12681224 649.90946983 -256.10709452 653.64521701 -254.07568359 657.39648438 C-251.61910925 661.91323991 -249.0909619 666.3887003 -246.55859375 670.86328125 C-246.00212158 671.84723877 -245.44564941 672.83119629 -244.87231445 673.8449707 C-240.05735721 682.34215063 -235.18114625 690.80333604 -230.29296875 699.25854492 C-225.69257278 707.21828616 -221.11697032 715.19192264 -216.55859375 723.17578125 C-216.2270932 723.75637299 -215.89559265 724.33696472 -215.55404663 724.93515015 C-213.87310705 727.87943212 -212.19256768 730.82394228 -210.51220703 733.76855469 C-207.50839613 739.03190152 -204.50106168 744.29323484 -201.49398804 749.55471802 C-199.83308725 752.46087535 -198.1724144 755.36716294 -196.51171875 758.2734375 C-195.84570422 759.43896547 -195.17968859 760.60449281 -194.51367188 761.77001953 C-193.15299479 764.15120443 -191.79231771 766.53238932 -190.43164062 768.91357422 C-190.08903702 769.51312927 -189.74643341 770.11268433 -189.39344788 770.73040771 C-188.70304432 771.93861647 -188.01264513 773.14682772 -187.32225037 774.3550415 C-185.62061673 777.33294451 -183.91890953 780.31080543 -182.21704102 783.28857422 C-179.26026478 788.46229547 -176.30408255 793.63634847 -173.3515625 798.8125 C-167.1934739 809.60544629 -160.99819577 820.37643298 -154.78320312 831.13671875 C-151.65232844 836.55839855 -148.52907927 841.98382491 -145.43359375 847.42578125 C-143.11470739 851.49760547 -140.76798104 855.55117154 -138.3984375 859.59375 C-131.63129034 871.13984253 -124.97964854 882.73790645 -118.46850586 894.43041992 C-114.81232636 900.98457077 -111.07494497 907.47969611 -107.24194336 913.93164062 C-103.85081493 919.6560136 -100.5720072 925.4403013 -97.30859375 931.23828125 C-90.13350787 943.98136123 -82.81927641 956.64240113 -75.49609375 969.30078125 C-60.69219131 994.89737095 -60.69219131 994.89737095 -54.90551758 1005.26831055 C-51.6171593 1011.1369638 -48.21096091 1016.93519788 -44.80859375 1022.73828125 C-39.94261779 1031.04111133 -35.17614443 1039.39179756 -30.49609375 1047.80078125 C-25.4043302 1056.94624376 -20.19790412 1066.01527931 -14.90209961 1075.04394531 C-9.56056038 1084.1598934 -4.31622099 1093.32954818 0.91162109 1102.51098633 C1.53891113 1103.6120874 2.16620117 1104.71318848 2.8125 1105.84765625 C3.72757324 1107.4550769 3.72757324 1107.4550769 4.66113281 1109.0949707 C7.06683715 1113.28009308 9.53009748 1117.43039438 12.0065918 1121.57397461 C18.5735426 1133.53325612 20.55418574 1147.59621017 17.44140625 1160.92578125 C11.90396578 1178.39388892 -4.52909636 1191.50034585 -17.19067383 1203.95922852 C-21.85234352 1208.56442481 -26.23355868 1213.32561124 -30.49609375 1218.30078125 C-31.70699185 1219.6713081 -32.9304624 1221.03126028 -34.18359375 1222.36328125 C-34.72371094 1222.95238281 -35.26382812 1223.54148437 -35.8203125 1224.1484375 C-37.49609375 1225.30078125 -37.49609375 1225.30078125 -39.25390625 1225.08935547 C-42.17239893 1224.06292566 -44.46546499 1222.54298172 -47.046875 1220.8359375 C-48.12976807 1220.1236499 -49.21266113 1219.4113623 -50.32836914 1218.67749023 C-51.48851409 1217.90619265 -52.64858746 1217.13478737 -53.80859375 1216.36328125 C-55.00285017 1215.57511158 -56.197432 1214.78743476 -57.39233398 1214.00024414 C-63.8629354 1209.73244299 -70.3095729 1205.42883611 -76.74365234 1201.10620117 C-82.58147071 1197.20433617 -88.51147552 1193.44791699 -94.43359375 1189.67578125 C-103.98680719 1183.58873976 -113.44551241 1177.37555191 -122.85668945 1171.0715332 C-128.75084626 1167.12527822 -134.66524347 1163.21574766 -140.62109375 1159.36328125 C-150.55234461 1152.9378539 -160.42986781 1146.43151634 -170.30859375 1139.92578125 C-180.58800213 1133.15684886 -190.86749833 1126.3887257 -201.18359375 1119.67578125 C-210.97126117 1113.30553097 -220.73568699 1106.90018613 -230.49609375 1100.48828125 C-231.5997377 1099.76363678 -231.5997377 1099.76363678 -232.72567749 1099.02435303 C-240.30781621 1094.04547225 -247.8789061 1089.05172114 -255.41796875 1084.0078125 C-261.13947391 1080.18273055 -266.91726312 1076.46065128 -272.74609375 1072.80078125 C-285.8200139 1064.53623334 -298.65241154 1055.91648516 -311.49609375 1047.30078125 C-313.01413119 1046.28356798 -314.53233306 1045.26660002 -316.05078125 1044.25 C-316.91485596 1043.67125122 -316.91485596 1043.67125122 -317.79638672 1043.08081055 C-322.78968326 1039.7493209 -327.79797858 1036.45229606 -332.85546875 1033.21875 C-340.33962141 1028.42059292 -347.76907709 1023.54083264 -355.19354248 1018.65100098 C-359.05494848 1016.10801351 -362.91806538 1013.56762814 -366.78125 1011.02734375 C-367.92128479 1010.2776532 -367.92128479 1010.2776532 -369.08435059 1009.51281738 C-375.1709264 1005.5115894 -381.26724674 1001.52562416 -387.37109375 997.55078125 C-396.08658619 991.87418569 -404.79459825 986.18630333 -413.49609375 980.48828125 C-414.12363556 980.07744293 -414.75117737 979.66660461 -415.3977356 979.24331665 C-427.80704155 971.11734192 -427.80704155 971.11734192 -433.8293457 967.06542969 C-434.48249756 966.6274707 -435.13564941 966.18951172 -435.80859375 965.73828125 C-436.84298584 965.04468506 -437.87737793 964.35108887 -438.94311523 963.63647461 C-441.81201754 961.73398205 -444.72277743 959.90810181 -447.65611267 958.10614014 C-458.80139226 951.24936462 -469.60570198 943.89414312 -480.43359375 936.55078125 C-483.30029338 934.61059623 -486.167523 932.67119636 -489.0348053 930.73187256 C-490.80060294 929.53712887 -492.56596611 928.34174266 -494.33079529 927.14556885 C-495.54364952 926.32376129 -495.54364952 926.32376129 -496.78100586 925.48535156 C-497.55821991 924.95639282 -498.33543396 924.42743408 -499.13619995 923.88244629 C-500.76651102 922.78976745 -502.41093785 921.71796287 -504.06619263 920.66345215 C-504.88296478 920.13997192 -505.69973694 919.6164917 -506.54125977 919.07714844 C-507.27723892 918.61443542 -508.01321808 918.15172241 -508.77149963 917.67498779 C-510.49609375 916.30078125 -510.49609375 916.30078125 -511.49609375 913.30078125 C-510.1066109 910.80516555 -508.6739279 908.52274668 -507.0625 906.17578125 C-506.59174545 905.47364502 -506.12099091 904.77150879 -505.63597107 904.0480957 C-504.11975673 901.79236325 -502.58920221 899.54676449 -501.05859375 897.30078125 C-500.06094767 895.81831447 -499.06419261 894.33524765 -498.06835938 892.8515625 C-493.23868499 885.67842259 -488.33450651 878.57816116 -483.1875 871.62817383 C-480.66642134 868.15914339 -478.32307467 864.57828701 -475.9609375 861 C-472.68994898 856.06603584 -469.33623114 851.18805002 -465.99609375 846.30078125 C-460.23064084 837.86349182 -460.23064084 837.86349182 -454.55859375 829.36328125 C-451.52934222 824.79021417 -448.40187739 820.29183501 -445.2565918 815.79833984 C-435.45994153 801.8010858 -425.9699711 787.61146616 -416.53222656 773.37084961 C-414.52494385 770.34428125 -412.51177745 767.32175745 -410.49609375 764.30078125 C-411.21321533 764.03652344 -411.93033691 763.77226563 -412.66918945 763.5 C-415.57472302 762.26742544 -418.06750988 760.81010482 -420.7265625 759.11328125 C-421.69400391 758.49710938 -422.66144531 757.8809375 -423.65820312 757.24609375 C-424.65658203 756.60414063 -425.65496094 755.9621875 -426.68359375 755.30078125 C-428.19856445 754.33785156 -428.19856445 754.33785156 -429.74414062 753.35546875 C-437.22542469 748.57145031 -437.22542469 748.57145031 -439.49609375 746.30078125 C-444.4792717 746.39711685 -447.42765194 749.43935648 -450.93359375 752.61328125 C-452.18207161 753.71379136 -453.43077583 754.81404472 -454.6796875 755.9140625 C-455.31374512 756.47818848 -455.94780273 757.04231445 -456.60107422 757.62353516 C-459.53441196 760.21977714 -462.51583997 762.75871351 -465.49609375 765.30078125 C-466.66302501 766.30047247 -467.82969098 767.30047345 -468.99609375 768.30078125 C-489.99609375 786.30078125 -489.99609375 786.30078125 -491.74707031 787.80151367 C-492.91061973 788.79891135 -494.07403179 789.79646928 -495.23730469 790.79418945 C-498.2005444 793.33535426 -501.16631345 795.87346324 -504.13671875 798.40625 C-509.3738617 802.87619064 -514.59041849 807.35373315 -519.68359375 811.98828125 C-523.84870004 815.7673533 -528.15873314 819.32689491 -532.52734375 822.8671875 C-541.4729597 830.20023847 -550.15199985 837.86134105 -558.88745117 845.44213867 C-564.82435483 850.59206636 -570.79036716 855.70756016 -576.76220703 860.81689453 C-579.67503421 863.30973649 -582.58543436 865.80540891 -585.49609375 868.30078125 C-586.66274893 869.30079465 -587.82941559 870.30079466 -588.99609375 871.30078125 C-589.57359375 871.79578125 -590.15109375 872.29078125 -590.74609375 872.80078125 C-621.37109375 899.05078125 -621.37109375 899.05078125 -651.99609375 925.30078125 C-652.57383545 925.79602295 -653.15157715 926.29126465 -653.74682617 926.80151367 C-654.91091352 927.7992332 -656.07513831 928.79679239 -657.23950195 929.79418945 C-660.19679262 932.32776868 -663.15147744 934.86428262 -666.1015625 937.40625 C-672.24242838 942.69285061 -678.42313969 947.91214796 -684.71484375 953.01953125 C-687.85993751 955.5992149 -690.96069794 958.22732073 -694.05859375 960.86328125 C-699.45666397 965.44825632 -704.93145662 969.91852615 -710.49609375 974.30078125 C-711.51832031 975.10773437 -712.54054688 975.9146875 -713.59375 976.74609375 C-722.49854859 983.76503248 -731.44638866 990.72900225 -740.40527344 997.67871094 C-741.7110881 998.6917694 -743.01649586 999.70535282 -744.32128906 1000.71972656 C-756.29897652 1010.02798165 -768.52922112 1018.95929966 -780.94384766 1027.67480469 C-785.43588266 1030.83213909 -789.8944026 1034.03132359 -794.33398438 1037.26196289 C-802.24088384 1043.01404657 -810.24355618 1048.56071937 -818.41601562 1053.92724609 C-820.72660761 1055.45299615 -823.02599543 1056.99474656 -825.32421875 1058.5390625 C-837.92111449 1066.99736975 -850.64599047 1075.23254112 -863.49609375 1083.30078125 C-864.37265625 1083.85121094 -865.24921875 1084.40164063 -866.15234375 1084.96875 C-894.98041282 1103.02919208 -924.53908593 1119.71494693 -954.54833984 1135.72705078 C-957.21709897 1137.15183307 -959.88225185 1138.58312958 -962.546875 1140.015625 C-979.90754816 1149.3031611 -997.74739861 1157.59526212 -1015.69213867 1165.68530273 C-1016.64064697 1166.11528564 -1017.58915527 1166.54526855 -1018.56640625 1166.98828125 C-1019.39930176 1167.36339844 -1020.23219727 1167.73851562 -1021.09033203 1168.125 C-1023.54309332 1169.27529553 -1023.54309332 1169.27529553 -1025.92333984 1170.79663086 C-1028.74074293 1172.44381442 -1031.52842992 1173.55243187 -1034.58984375 1174.6796875 C-1039.79300034 1176.6367109 -1044.90543871 1178.72807478 -1050.00415039 1180.94067383 C-1062.06492016 1186.17143608 -1074.26080107 1190.9718914 -1086.55859375 1195.61328125 C-1087.32606934 1195.90347137 -1088.09354492 1196.1936615 -1088.88427734 1196.49264526 C-1118.20425677 1207.56103169 -1118.20425677 1207.56103169 -1130.43359375 1210.98828125 C-1131.75530539 1211.36684881 -1133.0769189 1211.74575911 -1134.3984375 1212.125 C-1135.05924316 1212.31336426 -1135.72004883 1212.50172852 -1136.40087891 1212.69580078 C-1138.67317543 1213.3519125 -1140.93838858 1214.029194 -1143.203125 1214.7109375 C-1163.13204299 1220.70461132 -1183.045685 1226.00317401 -1203.34277344 1230.57519531 C-1205.90781132 1231.16541617 -1208.45713777 1231.78583535 -1211.00390625 1232.44921875 C-1225.18693533 1236.08962663 -1239.70995212 1238.05396631 -1254.20629883 1239.99359131 C-1255.71364503 1240.19581099 -1257.22065725 1240.40053856 -1258.72729492 1240.60797119 C-1301.20684617 1246.44733002 -1346.17970801 1247.97162214 -1388.49609375 1240.30078125 C-1390.10257218 1240.03468696 -1391.70931397 1239.77017392 -1393.31640625 1239.5078125 C-1397.06590567 1238.87187652 -1400.7779157 1238.10105136 -1404.49609375 1237.30078125 C-1405.86301481 1237.03508388 -1407.23021709 1236.77083038 -1408.59765625 1236.5078125 C-1427.98903167 1232.64610006 -1446.75075352 1225.97753678 -1464.49609375 1217.30078125 C-1465.7505127 1216.69194092 -1465.7505127 1216.69194092 -1467.03027344 1216.07080078 C-1514.62393845 1192.73075502 -1549.49046764 1153.33566184 -1569.54492188 1104.58374023 C-1570.35704819 1102.63451201 -1571.21317967 1100.70371583 -1572.078125 1098.77734375 C-1577.23694796 1086.12898994 -1579.84800905 1072.3795571 -1582.24609375 1058.98828125 C-1582.44444824 1057.88202393 -1582.64280273 1056.7757666 -1582.84716797 1055.63598633 C-1583.43796194 1052.19608967 -1583.97732126 1048.75225938 -1584.49609375 1045.30078125 C-1584.6866333 1044.08124756 -1584.87717285 1042.86171387 -1585.07348633 1041.60522461 C-1586.82492829 1029.44257581 -1586.76785983 1017.288112 -1586.7019043 1005.02124023 C-1586.68339346 1001.44963593 -1586.68139698 997.8782884 -1586.68164062 994.30664062 C-1586.67673306 992.0273415 -1586.6709081 989.74804413 -1586.6640625 987.46875 C-1586.66239326 985.87355782 -1586.66239326 985.87355782 -1586.66069031 984.24613953 C-1586.65431046 983.26023331 -1586.6479306 982.27432709 -1586.64135742 981.25854492 C-1586.63754562 980.39492844 -1586.63373383 979.53131195 -1586.62980652 978.64152527 C-1586.50118016 976.3898227 -1586.0742821 974.47222627 -1585.49609375 972.30078125 C-1585.36693619 970.01038715 -1585.2670013 967.71829733 -1585.18359375 965.42578125 C-1584.80298501 957.51415689 -1583.47619404 949.86874597 -1581.95581055 942.10400391 C-1580.98777519 937.14661292 -1580.23796525 932.25350561 -1579.72900391 927.22875977 C-1579.44639147 924.88935685 -1578.88795874 922.73516622 -1578.18359375 920.48828125 C-1576.69549497 915.34432443 -1575.67480028 910.18130419 -1574.68359375 904.92578125 C-1572.62417912 894.18114223 -1569.6513808 883.76737865 -1566.49609375 873.30078125 C-1566.2326416 872.41688721 -1565.96918945 871.53299316 -1565.69775391 870.62231445 C-1564.2853501 865.88714574 -1562.82228796 861.1814175 -1561.23925781 856.50024414 C-1560.7549566 855.06690983 -1560.27739698 853.63127443 -1559.80761719 852.19311523 C-1558.11896067 847.03143948 -1556.24965 841.97251809 -1554.24609375 836.92578125 C-1551.39886147 829.69637332 -1548.67394547 822.43037058 -1546.06933594 815.10986328 C-1544.2331404 810.03286109 -1542.1115736 805.14067649 -1539.84814453 800.23999023 C-1538.43531295 797.16865051 -1537.06304658 794.0816758 -1535.69921875 790.98828125 C-1527.22725251 771.79095398 -1518.57411159 752.95820613 -1508.41015625 734.59375 C-1505.82802571 729.92657008 -1503.33747529 725.21730698 -1500.87109375 720.48828125 C-1496.77896096 712.69404851 -1492.37220845 705.10932085 -1487.84814453 697.55908203 C-1486.43205771 695.19382326 -1485.02430681 692.82372821 -1483.6171875 690.453125 C-1468.78828591 665.52965992 -1452.90528615 641.36340301 -1436.17333984 617.67773438 C-1434.53250255 615.35237893 -1432.89815784 613.02259723 -1431.265625 610.69140625 C-1426.22582173 603.50443515 -1421.1322476 596.37461389 -1415.828125 589.37890625 C-1414.10570289 587.10542446 -1412.39552873 584.82512599 -1410.6953125 582.53515625 C-1400.99548979 569.48755082 -1390.81751435 556.86035937 -1380.49609375 544.30078125 C-1378.8076285 542.23906941 -1377.12066566 540.17613397 -1375.43359375 538.11328125 C-1374.12109375 536.50911458 -1372.80859375 534.90494792 -1371.49609375 533.30078125 C-1368.3826996 533.92293944 -1366.17602346 534.96270536 -1363.52734375 536.69921875 C-1362.79128906 537.17875 -1362.05523438 537.65828125 -1361.296875 538.15234375 C-1360.53761719 538.65507813 -1359.77835938 539.1578125 -1358.99609375 539.67578125 C-1358.23683594 540.17078125 -1357.47757813 540.66578125 -1356.6953125 541.17578125 C-1353.21320845 543.45652891 -1349.80946534 545.77881419 -1346.49609375 548.30078125 C-1348.10942028 553.23679217 -1350.97768334 557.02358514 -1353.99609375 561.17578125 C-1355.09130286 562.70598798 -1356.18502933 564.23725685 -1357.27734375 565.76953125 C-1357.82261719 566.53394531 -1358.36789062 567.29835938 -1358.9296875 568.0859375 C-1362.92289829 573.73219814 -1366.72547712 579.50433201 -1370.49609375 585.30078125 C-1370.94388184 585.98769043 -1371.39166992 586.67459961 -1371.85302734 587.38232422 C-1388.67333695 613.29974948 -1403.79128469 640.35628004 -1416.64648438 668.45751953 C-1417.45090557 670.20274368 -1418.2775531 671.93767303 -1419.10546875 673.671875 C-1422.74487361 681.33526102 -1425.79956381 689.14952495 -1428.69433594 697.11474609 C-1429.53168845 699.39783209 -1430.39059403 701.67192366 -1431.25390625 703.9453125 C-1435.15993274 714.28025012 -1438.56496881 724.64998875 -1441.49609375 735.30078125 C-1441.70476074 736.04263672 -1441.91342773 736.78449219 -1442.12841797 737.54882812 C-1457.08638488 790.85852396 -1460.79242764 849.39728408 -1433.80859375 899.55078125 C-1423.1766388 917.24985919 -1408.64513719 931.95780409 -1391.49609375 943.30078125 C-1389.9028125 944.368125 -1389.9028125 944.368125 -1388.27734375 945.45703125 C-1360.99311016 963.01619148 -1326.83241973 969.78830193 -1294.74609375 969.61328125 C-1294.04054352 969.61145844 -1293.33499329 969.60963562 -1292.60806274 969.60775757 C-1264.11542548 969.48547499 -1235.1453984 965.52580744 -1207.671875 957.90039062 C-1205.11828671 957.19666387 -1202.55718749 956.5235487 -1199.99609375 955.84765625 C-1156.32407581 944.15230673 -1115.38206797 926.29842599 -1075.05859375 906.17578125 C-1074.42139404 905.85781586 -1073.78419434 905.53985046 -1073.12768555 905.21224976 C-1066.821098 902.05823774 -1060.57617054 898.87219377 -1054.49609375 895.30078125 C-1052.89044921 894.38734028 -1051.28356553 893.47607571 -1049.67578125 892.56640625 C-1040.47697582 887.34240395 -1031.32455731 882.08662145 -1022.36230469 876.46435547 C-1020.10380444 875.05619061 -1017.8352803 873.66482515 -1015.56640625 872.2734375 C-1005.66808629 866.19460727 -995.87668069 860.00612986 -986.26123047 853.48925781 C-984.47402712 852.28592366 -982.6765603 851.09968409 -980.875 849.91796875 C-970.86423587 843.34034071 -961.15967832 836.37630006 -951.49609375 829.30078125 C-950.31926025 828.44129883 -950.31926025 828.44129883 -949.11865234 827.56445312 C-937.79679734 819.29087874 -926.58542257 810.8835609 -915.49609375 802.30078125 C-914.59431396 801.6037207 -914.59431396 801.6037207 -913.67431641 800.89257812 C-899.51502165 789.92494385 -885.75439559 778.47525635 -872.20214844 766.76855469 C-870.46531779 765.27430371 -868.72029567 763.79018326 -866.97265625 762.30859375 C-860.57209175 756.87393583 -854.31736329 751.32869283 -848.18383789 745.59423828 C-844.00986632 741.71553773 -839.66024067 738.10762423 -835.2109375 734.546875 C-831.22556762 731.24962654 -827.47398575 727.71896639 -823.7109375 724.171875 C-821.49609375 722.30078125 -821.49609375 722.30078125 -819.49609375 722.30078125 C-819.16609375 721.31078125 -818.83609375 720.32078125 -818.49609375 719.30078125 C-817.20253548 717.92882551 -815.87310673 716.58895469 -814.49609375 715.30078125 C-815.23351807 715.02347168 -815.97094238 714.74616211 -816.73071289 714.46044922 C-819.26981001 713.39567379 -821.42551457 712.22166473 -823.7421875 710.74609375 C-824.56396484 710.22402344 -825.38574219 709.70195313 -826.23242188 709.1640625 C-827.56950195 708.30361328 -827.56950195 708.30361328 -828.93359375 707.42578125 C-829.88298828 706.81863281 -830.83238281 706.21148438 -831.81054688 705.5859375 C-840.76229399 699.8316515 -849.60570656 693.91723176 -858.44625854 687.99420166 C-866.40299993 682.66430441 -874.3907068 677.40338147 -882.49609375 672.30078125 C-892.60426784 665.93623379 -902.53837943 659.32327643 -912.45507812 652.66601562 C-919.49145199 647.94601785 -926.56874854 643.29772447 -933.68986511 638.70655823 C-942.25569967 633.17735666 -950.7590677 627.55367731 -959.26672363 621.93554688 C-972.58899499 613.13873425 -985.91323558 604.34571649 -999.29663086 595.64208984 C-1007.44135061 590.34389605 -1015.56250266 585.01008484 -1023.68359375 579.67578125 C-1032.21308156 574.07354339 -1040.74478249 568.47548236 -1049.30859375 562.92578125 C-1058.5655803 556.92642369 -1067.7800035 550.86267132 -1076.99609375 544.80078125 C-1090.9136779 535.64533494 -1090.9136779 535.64533494 -1104.87109375 526.55078125 C-1121.06020431 516.05349905 -1137.23302973 505.52405283 -1153.26245117 494.78417969 C-1158.84043762 491.05429713 -1164.47095364 487.4064058 -1170.10058594 483.75512695 C-1177.84928772 478.72719353 -1185.58163589 473.67454221 -1193.30859375 468.61328125 C-1194.2526709 467.99496933 -1194.2526709 467.99496933 -1195.21582031 467.36416626 C-1203.22433697 462.11763076 -1211.21917496 456.85233067 -1219.16015625 451.50390625 C-1221.95298911 449.65945925 -1224.76516134 447.85892263 -1227.59375 446.0703125 C-1233.327752 442.43191238 -1238.97104643 438.66630742 -1244.60803223 434.87988281 C-1254.65359389 428.13621095 -1264.76968614 421.52551537 -1274.99829102 415.06152344 C-1280.53542112 411.55924153 -1286.02016896 407.99492854 -1291.45605469 404.33789062 C-1297.76445488 400.10044712 -1304.1316586 395.9533103 -1310.49609375 391.80078125 C-1317.60017917 387.16499844 -1324.69946382 382.52366472 -1331.74609375 377.80078125 C-1336.69397755 374.48605369 -1341.67994332 371.23655125 -1346.69555664 368.02514648 C-1361.56572545 358.49662969 -1376.30641077 348.77667502 -1390.98150635 338.9513855 C-1398.86873679 333.67459154 -1406.81763078 328.51517502 -1414.86401367 323.484375 C-1420.73989856 319.80312835 -1426.51659669 315.99009634 -1432.27392578 312.12670898 C-1438.62949615 307.86597251 -1445.02569299 303.66984097 -1451.43359375 299.48828125 C-1462.03073668 292.5716923 -1472.61074107 285.62944275 -1483.18359375 278.67578125 C-1494.1064781 271.49206556 -1505.03866097 264.32358555 -1515.99975586 257.19824219 C-1520.05704025 254.55762532 -1524.10346034 251.90377125 -1528.12109375 249.203125 C-1528.82524414 248.72979736 -1529.52939453 248.25646973 -1530.25488281 247.76879883 C-1531.52998446 246.90877748 -1532.80297963 246.04561958 -1534.07324219 245.1784668 C-1536.54954512 243.5051018 -1538.64106204 242.25245849 -1541.49609375 241.30078125 C-1539.9280979 237.30612515 -1537.12947574 234.84035075 -1533.99609375 232.05078125 C-1533.45855469 231.56480469 -1532.92101563 231.07882813 -1532.3671875 230.578125 C-1528.38953569 227.0142242 -1524.26075978 223.68145595 -1520.0546875 220.390625 C-1517.11697777 217.99112163 -1514.3340606 215.44582255 -1511.55859375 212.86328125 C-1480.4877203 184.0597418 -1448.37633647 170.21545697 -1405.72998047 171.17333984 C-1393.02678472 171.67394895 -1381.57842951 175.37077939 -1369.6484375 179.53515625 C-1364.99163817 181.15536507 -1360.30037368 182.57805453 -1355.55859375 183.92578125 C-1349.35518254 185.70280758 -1343.30664552 187.75295728 -1337.24609375 189.9765625 C-1331.95532011 191.84486694 -1326.60479286 193.50727236 -1321.24267578 195.15795898 C-1320.48325684 195.39329346 -1319.72383789 195.62862793 -1318.94140625 195.87109375 C-1317.94391357 196.17684326 -1317.94391357 196.17684326 -1316.92626953 196.48876953 C-1314.83504201 197.18752609 -1312.78427403 197.94152475 -1310.72387695 198.72485352 C-1306.65624178 200.26173595 -1302.54813687 201.62396926 -1298.40625 202.9453125 C-1296.8217274 203.4553299 -1295.23725713 203.96550987 -1293.65283203 204.47583008 C-1292.82398499 204.7421524 -1291.99513794 205.00847473 -1291.14117432 205.28286743 C-1275.74461647 210.2335414 -1260.41148084 215.3442109 -1245.12109375 220.61328125 C-1233.31422813 224.68032324 -1221.49914251 228.60765665 -1209.53344727 232.18701172 C-1194.84710177 236.63317591 -1180.38243769 241.77920788 -1165.87464905 246.76994324 C-1158.28156821 249.37992358 -1150.67537497 251.94827401 -1143.05859375 254.48828125 C-1142.01324463 254.83818115 -1140.96789551 255.18808105 -1139.89086914 255.54858398 C-1134.50115198 257.34188907 -1129.09289958 259.0331007 -1123.64672852 260.64624023 C-1121.11961725 261.41536105 -1118.65151004 262.29716096 -1116.18359375 263.23828125 C-1111.06826118 265.13578825 -1105.89011272 266.72946332 -1100.66796875 268.3046875 C-1097.81923499 269.19930217 -1095.03896892 270.18460562 -1092.24609375 271.23828125 C-1087.7944347 272.89689287 -1083.28706052 274.26408228 -1078.72265625 275.5703125 C-1069.77569004 278.16840306 -1060.94823068 281.07489899 -1052.12109375 284.05078125 C-1050.54926573 284.57788968 -1048.97732374 285.10465838 -1047.40527344 285.63110352 C-1043.49901834 286.93976802 -1039.59378447 288.25144836 -1035.68884277 289.56402588 C-1030.0431091 291.46097102 -1024.39509739 293.35109709 -1018.74609375 295.23828125 C-1017.65337158 295.60356934 -1016.56064941 295.96885742 -1015.43481445 296.34521484 C-1008.2604066 298.73539134 -1001.06517092 301.03742453 -993.828125 303.23046875 C-991.41683219 304.00502236 -989.07427685 304.81968571 -986.7109375 305.71875 C-981.93593444 307.53508573 -977.09638294 309.13596101 -972.24609375 310.73828125 C-970.12366276 311.44260238 -968.00126944 312.14703709 -965.87890625 312.8515625 C-964.71391602 313.23779785 -963.54892578 313.6240332 -962.34863281 314.02197266 C-955.71603049 316.22226282 -949.08771941 318.43546088 -942.45861816 320.64627075 C-938.73425774 321.88825908 -935.00970059 323.1296571 -931.28515625 324.37109375 C-929.83495992 324.85448913 -928.38476461 325.33788758 -926.93457031 325.82128906 C-926.2112854 326.06238403 -925.48800049 326.303479 -924.74279785 326.55187988 C-908.6928711 331.90185547 -908.6928711 331.90185547 -906.62739563 332.59039307 C-905.11879521 333.09322747 -903.61015476 333.59594182 -902.10148621 334.09857178 C-901.31075211 334.36204407 -900.52001801 334.62551636 -899.70532227 334.89697266 C-898.99054214 335.13509674 -898.27576202 335.37322083 -897.5393219 335.61856079 C-895.58773714 336.27018212 -893.63740409 336.92540018 -891.6875 337.58203125 C-890.48996094 337.98421875 -889.29242187 338.38640625 -888.05859375 338.80078125 C-886.86363281 339.20296875 -885.66867187 339.60515625 -884.4375 340.01953125 C-881.66271094 340.93705303 -878.87433603 341.7857929 -876.0703125 342.609375 C-869.351229 344.60988295 -862.71382787 346.85763248 -856.06756592 349.0852356 C-853.70259251 349.87786077 -851.33697418 350.66853431 -848.97119141 351.45874023 C-842.66376712 353.56602097 -836.35770176 355.67735684 -830.05175781 357.7890625 C-826.62892805 358.93523429 -823.20564815 360.08005303 -819.78210449 361.22409058 C-817.92625497 361.84483105 -816.07102777 362.4674311 -814.21582031 363.09008789 C-808.39880164 365.03472597 -802.57230735 366.89625044 -796.68994141 368.63256836 C-792.45961992 369.92106045 -788.33222017 371.49314983 -784.18359375 373.01953125 C-781.49646724 373.95319385 -778.83908326 374.80586178 -776.11328125 375.60546875 C-769.33704135 377.61050016 -762.65235346 379.89093157 -755.95495605 382.14181519 C-743.74124871 386.24451313 -731.51434405 390.30144192 -719.24609375 394.23828125 C-718.18535645 394.57875488 -717.12461914 394.91922852 -716.03173828 395.27001953 C-710.94050968 396.89790335 -705.84336915 398.50346196 -700.73632812 400.08108521 C-692.56800363 402.61038025 -684.47256893 405.31712104 -676.39401245 408.11883545 C-672.58260044 409.43983036 -668.76796246 410.75143578 -664.953125 412.0625 C-664.16740616 412.33253845 -663.38168732 412.6025769 -662.57215881 412.88079834 C-650.64055882 416.9744322 -638.66463411 420.93590624 -626.69250488 424.9090271 C-620.68024303 426.90501944 -614.67170103 428.91201482 -608.6640625 430.921875 C-585.79514831 438.5842501 -585.79514831 438.5842501 -562.83691406 445.97314453 C-552.34472257 449.27870427 -541.92580235 452.8041656 -531.49609375 456.30078125 C-525.70540141 458.24119889 -519.91374954 460.1787328 -514.12109375 462.11328125 C-513.36135254 462.36703522 -512.60161133 462.62078918 -511.81884766 462.88223267 C-500.35586029 466.70812277 -488.87245452 470.46692937 -477.37109375 474.17578125 C-476.65615753 474.40634216 -475.94122131 474.63690308 -475.20462036 474.87445068 C-474.50102386 475.10134583 -473.79742737 475.32824097 -473.07250977 475.56201172 C-447.21308746 483.90164844 -447.21308746 483.90164844 -435.26538086 488.32006836 C-432.50517609 489.29756484 -429.73312205 490.16659151 -426.9296875 491.01171875 C-418.5985866 493.5575124 -410.31425824 496.24390727 -402.02978516 498.93701172 C-399.36950512 499.80129737 -396.70821736 500.66242937 -394.046875 501.5234375 C-392.31889684 502.0842856 -390.59103004 502.64547695 -388.86328125 503.20703125 C-388.03358826 503.47596191 -387.20389526 503.74489258 -386.34906006 504.02197266 C-381.02607 505.76055208 -375.78162246 507.63705607 -370.59423828 509.75195312 C-368.10486351 510.40311841 -366.88037799 510.23111483 -364.49609375 509.30078125 C-362.20158463 507.52065831 -360.03712191 505.7252275 -357.87109375 503.80078125 C-357.25008789 503.25905273 -356.62908203 502.71732422 -355.98925781 502.15917969 C-351.57483553 498.29627531 -347.22869127 494.35883115 -342.89453125 490.40625 C-339.49553302 487.42243885 -335.92941517 484.66923372 -332.33203125 481.9296875 C-331.72617188 481.39214844 -331.1203125 480.85460937 -330.49609375 480.30078125 C-330.49609375 479.64078125 -330.49609375 478.98078125 -330.49609375 478.30078125 C-332.12278991 476.83697008 -332.12278991 476.83697008 -334.265625 475.359375 C-335.06669678 474.78034424 -335.86776855 474.20131348 -336.69311523 473.60473633 C-337.55622314 472.98880615 -338.41933105 472.37287598 -339.30859375 471.73828125 C-341.06787326 470.46165462 -342.82569462 469.18301607 -344.58203125 467.90234375 C-345.85965332 466.97083496 -345.85965332 466.97083496 -347.16308594 466.02050781 C-355.59316608 459.80645544 -363.32310374 452.8269317 -370.97998047 445.69921875 C-372.47341343 444.3217012 -373.98301666 442.96478448 -375.5 441.61328125 C-382.98226267 434.92337288 -389.8430332 427.81295246 -396.49609375 420.30078125 C-396.95338867 419.78821777 -397.41068359 419.2756543 -397.88183594 418.74755859 C-416.07190101 398.24608497 -430.41108883 375.3185828 -441.49609375 350.30078125 C-441.83656738 349.54861328 -442.17704102 348.79644531 -442.52783203 348.02148438 C-448.03400147 335.70934659 -450.7011869 323.12625389 -453.03466797 309.87768555 C-453.33706878 308.18888104 -453.67198338 306.50550548 -454.04248047 304.83032227 C-456.56256649 290.77724841 -457.01284928 269.1841765 -450.34765625 256.03515625 C-448.87396652 254.14406308 -447.37552448 252.7905739 -445.49609375 251.30078125 C-444.26632812 250.26824219 -444.26632812 250.26824219 -443.01171875 249.21484375 C-441.14060269 247.66615164 -439.25461699 246.13527951 -437.35546875 244.62109375 C-434.65050565 242.42608271 -432.06687346 240.15050665 -429.49609375 237.80078125 C-425.19617584 233.88186873 -420.73689828 230.20907256 -416.21484375 226.55078125 C-412.71701224 223.65602414 -409.37823971 220.60488586 -406.0234375 217.546875 C-403.42646982 215.23890527 -400.76205362 213.04522262 -398.05859375 210.86328125 C-394.25521872 207.78741537 -390.59526723 204.61324959 -386.99609375 201.30078125 C-382.52624255 197.18699216 -377.90564482 193.32990828 -373.1796875 189.515625 C-369.68915946 186.63479618 -366.36335307 183.59143722 -363.01953125 180.54296875 C-360.44527017 178.25562221 -357.80319886 176.08529854 -355.12109375 173.92578125 C-351.10785264 170.68127365 -347.27173421 167.31351445 -343.49609375 163.80078125 C-338.86358275 159.49084355 -334.07487425 155.45017185 -329.14453125 151.48046875 C-326.52334256 149.32320726 -324.00455094 147.08767125 -321.49609375 144.80078125 C-318.10010693 141.70522929 -314.63437844 138.74926918 -311.05859375 135.86328125 C-307.25521872 132.78741537 -303.59526723 129.61324959 -299.99609375 126.30078125 C-295.57753312 122.23895993 -291.03094988 118.4030521 -286.359375 114.63671875 C-283.84228251 112.58321083 -281.37090865 110.48566836 -278.91040039 108.36499023 C-266.14471343 97.39323154 -252.46840071 87.66548893 -238.49609375 78.30078125 C-237.8515625 77.86443359 -237.20703125 77.42808594 -236.54296875 76.97851562 C-206.36318177 56.60715941 -173.3426397 41.04197565 -139.43359375 27.98828125 C-138.58877441 27.66239014 -137.74395508 27.33649902 -136.87353516 27.00073242 C-131.97472624 25.14374656 -127.05469401 23.51307721 -122.02612305 22.04467773 C-119.46217657 21.29080869 -116.9147493 20.49488852 -114.3671875 19.6875 C-94.13760439 13.32654615 -73.84244189 8.52924319 -52.93359375 5.05078125 C-52.18308746 4.92581268 -51.43258118 4.80084412 -50.65933228 4.67208862 C-45.61117288 3.83851301 -40.56107529 3.02584793 -35.49609375 2.30078125 C-34.37054581 2.13077103 -33.24499786 1.9607608 -32.08534241 1.78559875 C-21.35847229 0.28306331 -10.82089668 -0.00972702 0 0 Z " fill="#fff" transform="translate(1589.49609375,-0.30078125)"/>
<path d="M0 0 C7.65370516 2.26509175 15.26982536 4.63981139 22.875 7.0625 C23.98875 7.41376953 25.1025 7.76503906 26.25 8.12695312 C27.31992187 8.46791016 28.38984375 8.80886719 29.4921875 9.16015625 C30.45495605 9.46574463 31.41772461 9.77133301 32.40966797 10.08618164 C34.72727895 10.90378936 36.83566816 11.84315793 39 13 C33.73062619 13.22587874 29.58630704 12.51519581 24.5703125 10.91796875 C23.89451141 10.70312332 23.21871033 10.48827789 22.52243042 10.266922 C21.10739134 9.81380923 19.69399393 9.35553984 18.28222656 8.89233398 C16.11502659 8.18424137 13.94110713 7.50052282 11.765625 6.81835938 C10.38755546 6.37383598 9.00993357 5.92792185 7.6328125 5.48046875 C5.75940186 4.87561646 5.75940186 4.87561646 3.84814453 4.25854492 C2.90825684 3.8432251 1.96836914 3.42790527 1 3 C0.67 2.01 0.34 1.02 0 0 Z " fill="#fff" transform="translate(848,387)"/>
<path d="M0 0 C8.58 0 17.16 0 26 0 C26 0.33 26 0.66 26 1 C22.25055444 1.50421729 18.50036087 2.00264031 14.75 2.5 C13.15478516 2.71462891 13.15478516 2.71462891 11.52734375 2.93359375 C9.99013672 3.13662109 9.99013672 3.13662109 8.421875 3.34375 C7.00793457 3.53227539 7.00793457 3.53227539 5.56542969 3.72460938 C3 4 3 4 -1 4 C-0.67 2.68 -0.34 1.36 0 0 Z " fill="#fff" transform="translate(1544,0)"/>
<path d="M0 0 C5.38328888 0.68815505 10.26856173 2.30741635 15.375 4.0625 C16.20644531 4.34416016 17.03789062 4.62582031 17.89453125 4.91601562 C19.93108441 5.60657101 21.96573881 6.30272179 24 7 C24 7.33 24 7.66 24 8 C15.32417585 7.4310935 7.71459624 5.01015142 0 1 C0 0.67 0 0.34 0 0 Z " fill="#fff" transform="translate(352,224)"/>
<path d="M0 0 C6.6 1.98 13.2 3.96 20 6 C15.82896375 7.04275906 14.5387368 6.85114212 10.5625 5.6875 C9.63566406 5.42324219 8.70882812 5.15898437 7.75390625 4.88671875 C5.1123764 4.03618361 2.5617976 3.06470354 0 2 C0 1.34 0 0.68 0 0 Z " fill="#fff" transform="translate(212,177)"/>
<path d="M0 0 C5.54436129 1.28708387 10.70201036 2.91864693 16 5 C16 5.33 16 5.66 16 6 C10.34979382 5.39891424 5.33835539 3.92471317 0 2 C0 1.34 0 0.68 0 0 Z " fill="#fff" transform="translate(684,333)"/>
<path d="M0 0 C0 0.99 0 1.98 0 3 C-1.63260714 4.37482707 -3.30225062 5.70647667 -5 7 C-5.99 8.485 -5.99 8.485 -7 10 C-7.99 9.67 -8.98 9.34 -10 9 C-6.7 6.03 -3.4 3.06 0 0 Z " fill="#fff" transform="translate(1272,141)"/>
<path d="M0 0 C1.43931117 0.45261358 2.87638999 0.91232979 4.3125 1.375 C5.11300781 1.63023437 5.91351562 1.88546875 6.73828125 2.1484375 C9 3 9 3 12 5 C10.56163249 4.88541307 9.12429034 4.75790884 7.6875 4.625 C6.88699219 4.55539062 6.08648438 4.48578125 5.26171875 4.4140625 C3 4 3 4 0 2 C0 1.34 0 0.68 0 0 Z " fill="#fff" transform="translate(788,367)"/>
<path d="M0 0 C1.4391134 0.28359887 2.87625518 0.57721399 4.3125 0.875 C5.11300781 1.03742188 5.91351562 1.19984375 6.73828125 1.3671875 C9 2 9 2 12 4 C7.53160785 4.21278058 4.17737474 3.59138085 0 2 C0 1.34 0 0.68 0 0 Z " fill="#fff" transform="translate(707,341)"/>
<path d="M0 0 C0.66 0.33 1.32 0.66 2 1 C-0.35380297 4.92300495 -2.64464931 5.83857315 -7 7 C-4.66666667 4.66666667 -2.33333333 2.33333333 0 0 Z " fill="#fff" transform="translate(675,801)"/>
</svg>
